# xmcd
#
# Track frame offsets:
#	150
#	19422
#	39630
#	53078
#	66643
#	83431
#	98575
#	117980
#	132536
#	152855
#
# Disc length: 2281 seconds
# Revision: 0
# Processed by: cddbd v1.5.2PL0 Copyright (c) Steve Scherf et al.
# Submitted via: dBpowerAMP V12.0
#
DISCID=8608e70a
DTITLE=The Grievous Angels - The Grievous Angels
DYEAR=2013
DGENRE=Americana
TTITLE0=Second Fiddle
TTITLE1=Western
TTITLE2=Traded In
TTITLE3=Tell Me No Lies
TTITLE4=Sleepin' Dogs
TTITLE5=Devil
TTITLE6=Picayune
TTITLE7=Ain't That Good
TTITLE8=Angel From Montgomery
TTITLE9=Come to the Water
EXTD=
EXTT0=
EXTT1=
EXTT2=
EXTT3=
EXTT4=
EXTT5=
EXTT6=
EXTT7=
EXTT8=
EXTT9=
PLAYORDER=
